<svg xmlns="http://www.w3.org/2000/svg" enable-background="new 0 0 32 32" height="32" width="32"><rect id="backgroundrect" width="100%" height="100%" x="0" y="0" fill="none" stroke="none"/><g class="currentLayer" style=""><title>Layer 1</title><path d="m26 32h-20c-3.314 0-6-2.686-6-6v-20c0-3.314 2.686-6 6-6h20c3.314 0 6 2.686 6 6v20c0 3.314-2.686 6-6 6z" fill="#d35c50" id="svg_1" class="" fill-opacity="1" opacity="0.1"/><g fill="#d35c50" id="svg_2" class="" fill-opacity="1" opacity="0.8"><path d="m20.667 15.333h-3.333c-.368 0-.667-.299-.667-.667s.298-.666.666-.666h3.333c.368 0 .667.299.667.667s-.298.666-.666.666z" id="svg_3" fill="#d35c50" opacity="0.8"/><path d="m20.667 18h-3.333c-.368 0-.667-.299-.667-.667s.299-.667.667-.667h3.333c.368 0 .667.299.667.667s-.299.667-.667.667z" id="svg_4" fill="#d35c50" opacity="0.8"/><path d="m20.667 20.667h-3.333c-.368 0-.667-.299-.667-.667s.299-.667.667-.667h3.333c.368 0 .667.299.667.667s-.299.667-.667.667z" id="svg_5" fill="#d35c50" opacity="0.8"/><path d="m14.167 16.667h-2.333c-.643 0-1.167-.523-1.167-1.167v-1c0-.643.523-1.167 1.167-1.167h2.333c.643 0 1.167.523 1.167 1.167v1c-.001.643-.524 1.167-1.167 1.167z" id="svg_6" fill="#d35c50" opacity="0.8"/><path d="m14.167 21.333h-2.333c-.643 0-1.167-.523-1.167-1.167v-1c0-.643.523-1.167 1.167-1.167h2.333c.643 0 1.167.523 1.167 1.167v1c-.001.644-.524 1.167-1.167 1.167z" id="svg_7" fill="#d35c50" opacity="0.8"/></g><path d="m22 8.667h-12c-1.103 0-2 .897-2 2v10.667c0 1.103.897 2 2 2h12c1.103 0 2-.897 2-2v-10.667c0-1.103-.897-2-2-2zm0 13.333h-12c-.368 0-.667-.299-.667-.667v-9.333h13.334v9.333c0 .368-.299.667-.667.667z" fill="#d35c50" id="svg_8" class="" fill-opacity="1"/></g></svg>