<svg xmlns="http://www.w3.org/2000/svg" enable-background="new 0 0 32 32" height="32" width="32"><rect id="backgroundrect" width="100%" height="100%" x="0" y="0" fill="none" stroke="none"/><g class="currentLayer" style=""><title>Layer 1</title><path d="m26 32h-20c-3.314 0-6-2.686-6-6v-20c0-3.314 2.686-6 6-6h20c3.314 0 6 2.686 6 6v20c0 3.314-2.686 6-6 6z" fill="#d35c50" id="svg_1" class="" fill-opacity="1" opacity="0.1"/><path d="m11.666 13.333c1.287 0 2.334-1.047 2.334-2.333v-.667c0-.551.449-1 1-1s1 .449 1 1v4.333h1.333v-4.333c0-1.286-1.047-2.333-2.333-2.333s-2.333 1.047-2.333 2.333v.667c0 .551-.449 1-1 1s-1-.449-1-1v-2.333c-.001-.369-.299-.667-.667-.667-.369 0-.667.298-.667.667v2.333c0 1.286 1.047 2.333 2.333 2.333z" fill="#d35c50" id="svg_2" class="" fill-opacity="1"/><path d="m20.667 18.667h-9.334c-.368 0-.667-.299-.667-.667s.299-.667.667-.667h9.334c.368 0 .667.299.667.667s-.299.667-.667.667z" fill="#d35c50" id="svg_3" class="" fill-opacity="1" opacity="0.7"/><path d="m18.667 21.333h-5.334c-.368 0-.667-.299-.667-.667s.299-.666.667-.666h5.334c.368 0 .667.299.667.667s-.299.666-.667.666z" fill="#d35c50" id="svg_4" class="" fill-opacity="1" opacity="0.7"/><path d="m22 24h-12c-1.103 0-2-.897-2-2v-5.333c0-1.103.897-2 2-2h12c1.103 0 2 .897 2 2v5.333c0 1.103-.897 2-2 2zm-12-8c-.368 0-.667.299-.667.667v5.333c0 .368.299.667.667.667h12c.368 0 .667-.299.667-.667v-5.333c0-.368-.299-.667-.667-.667z" fill="#d35c50" id="svg_5" class="" fill-opacity="1"/></g></svg>