<svg xmlns="http://www.w3.org/2000/svg" enable-background="new 0 0 32 32" height="32" width="32"><rect id="backgroundrect" width="100%" height="100%" x="0" y="0" fill="none" stroke="none"/><g class="currentLayer" style=""><title>Layer 1</title><path d="m26 32h-20c-3.314 0-6-2.686-6-6v-20c0-3.314 2.686-6 6-6h20c3.314 0 6 2.686 6 6v20c0 3.314-2.686 6-6 6z" fill="#d35c50" id="svg_1" class="" fill-opacity="1" opacity="0.1"/><path d="m24 17.333c0-.405-.36-.718-.761-.66l-4.667.667c-.328.046-.572.328-.572.659v3.027c-.279-.04-.58-.032-.887.047-1.01.26-1.622 1.105-1.402 1.896.177.635.825 1.031 1.59 1.031.721 0 1.487-.351 1.845-.973.127-.221.186-.46.182-.695h.005v-3.755l3.333-.476v2.259c-.279-.04-.58-.032-.887.047-1.01.26-1.622 1.105-1.402 1.896.176.635.825 1.031 1.589 1.031.721 0 1.487-.351 1.845-.973.127-.221.186-.46.182-.695h.007z" fill="#d35c50" id="svg_2" class="" fill-opacity="1" opacity="0.8"/><g fill="#d35c50" id="svg_3" class="" fill-opacity="1"><path d="m20.667 8h-10.667c-1.105 0-2 .895-2 2s.895 2 2 2h10.667c1.105 0 2-.895 2-2s-.896-2-2-2zm-10.667 2.666c-.368 0-.667-.298-.667-.667 0-.368.299-.667.667-.667s.667.298.667.667-.299.667-.667.667zm2.667 0c-.369 0-.667-.298-.667-.666s.298-.667.667-.667c.368 0 .667.298.667.667-.001.368-.299.666-.667.666z" id="svg_4" fill="#d35c50"/><path d="m20.667 13.333h-10.667c-1.107 0-2 .893-2 2s.893 2 2 2h6.787c.24-.68.853-1.207 1.6-1.313l4.273-.613c.007-.027.007-.047.007-.073 0-1.108-.894-2.001-2-2.001zm-10.667 2.666c-.367 0-.667-.3-.667-.667s.3-.667.667-.667.667.3.667.667-.3.667-.667.667zm2.667 0c-.367 0-.667-.3-.667-.667s.3-.667.667-.667.667.3.667.667-.301.667-.667.667z" id="svg_5" fill="#d35c50"/><path d="m10 18.666c-1.107 0-2 .893-2 2s.893 2 2 2h4.333c-.007-.467.12-.933.367-1.36.407-.707 1.12-1.247 1.967-1.493v-1.147zm0 2.666c-.367 0-.667-.3-.667-.667s.3-.667.667-.667.667.3.667.667-.3.667-.667.667zm2.667 0c-.367 0-.667-.3-.667-.667s.3-.667.667-.667.667.3.667.667-.301.667-.667.667z" id="svg_6" fill="#d35c50"/></g></g></svg>