<svg xmlns="http://www.w3.org/2000/svg" enable-background="new 0 0 32 32" height="32" width="32" style=""><rect id="backgroundrect" width="100%" height="100%" x="0" y="0" fill="none" stroke="none"/><g class="currentLayer" style=""><title>Layer 1</title><path d="m26 32h-20c-3.314 0-6-2.686-6-6v-20c0-3.314 2.686-6 6-6h20c3.314 0 6 2.686 6 6v20c0 3.314-2.686 6-6 6z" fill="#d35c50" id="svg_1" class="" fill-opacity="1" opacity="0.1"/><g fill="#d35c50" id="svg_2" class="" fill-opacity="1" opacity="0.8"><path d="m21.5 15.167c.276 0 .5-.224.5-.5s-.224-.5-.5-.5h-1.167v-.5h1.167c.276 0 .5-.224.5-.5s-.224-.5-.5-.5h-1.333c-.46 0-.833.374-.833.833v2.333c0 .46.374.833.833.833h1.333c.276 0 .5-.224.5-.5s-.224-.5-.5-.5h-1.167v-.5h1.167z" id="svg_3" fill="#d35c50" opacity="0.8"/><path d="m13.833 16.667c-.276 0-.5-.224-.5-.5v-3c0-.276.224-.5.5-.5s.5.224.5.5v3c0 .276-.224.5-.5.5z" id="svg_4" fill="#d35c50" opacity="0.8"/><path d="m12.166 16.667h-1.666c-.276 0-.5-.224-.5-.5v-3c0-.276.224-.5.5-.5s.5.224.5.5v2.5h1.167c.276 0 .5.224.5.5s-.224.5-.501.5z" id="svg_5" fill="#d35c50" opacity="0.8"/><path d="m17 16.667c-.225 0-.422-.15-.482-.366l-.833-3c-.074-.266.082-.542.348-.616.266-.075.541.082.616.348l.351 1.265.352-1.266c.074-.266.349-.423.616-.348.266.074.422.35.348.616l-.833 3c-.061.217-.258.367-.483.367z" id="svg_6" fill="#d35c50" opacity="0.8"/></g><path d="m22.834 9.333h-13.668c-.643 0-1.166.524-1.166 1.167v8.333c0 .644.523 1.167 1.166 1.167h5.5v1.333h-1.333c-.368 0-.667.299-.667.667s.299.667.667.667h5.334c.369 0 .667-.299.667-.667s-.298-.667-.667-.667h-1.333v-1.333h5.5c.643 0 1.166-.523 1.166-1.167v-8.333c0-.643-.523-1.167-1.166-1.167zm-.167 9.334h-13.334v-8h13.334z" fill="#d35c50" id="svg_7" class="" fill-opacity="1"/></g></svg>