<svg xmlns="http://www.w3.org/2000/svg" enable-background="new 0 0 32 32" height="32" width="32"><rect id="backgroundrect" width="100%" height="100%" x="0" y="0" fill="none" stroke="none"/><g class="currentLayer" style=""><title>Layer 1</title><path d="m26 32h-20c-3.314 0-6-2.686-6-6v-20c0-3.314 2.686-6 6-6h20c3.314 0 6 2.686 6 6v20c0 3.314-2.686 6-6 6z" fill="#d35c50" id="svg_1" class="selected" fill-opacity="1" opacity="0.1"/><path d="m17.5 8h-7.667c-1.013 0-1.833.82-1.833 1.833v10.333c0 1.014.82 1.834 1.833 1.834h5.427c-.587-.8-.927-1.773-.927-2.833 0-2.667 2.167-4.833 4.833-4.833.053 0 .113 0 .167.007v-4.508c0-1.013-.82-1.833-1.833-1.833zm-6.833 2.667h2.667c.367 0 .667.3.667.667s-.301.666-.668.666h-2.667c-.366 0-.666-.3-.666-.667s.3-.666.667-.666zm3.333 6.666h-3.333c-.367 0-.667-.3-.667-.667s.3-.666.667-.666h3.333c.367 0 .667.3.667.667s-.3.666-.667.666zm2.667-2.666h-6c-.367 0-.667-.3-.667-.667s.3-.667.667-.667h6c.367 0 .667.3.667.667-.001.367-.301.667-.667.667z" fill="#d35c50" id="svg_2" class="" fill-opacity="1"/><g fill="#d35c50" id="svg_3" class="" fill-opacity="1" opacity="1"><path d="m19.167 22.667c-1.93 0-3.5-1.57-3.5-3.5s1.57-3.5 3.5-3.5 3.5 1.57 3.5 3.5-1.57 3.5-3.5 3.5zm0-5.667c-1.195 0-2.167.972-2.167 2.167s.972 2.167 2.167 2.167 2.167-.972 2.167-2.167c-.001-1.195-.973-2.167-2.167-2.167z" id="svg_4" fill="#d35c50" opacity="1"/><path d="m23.333 24c-.171 0-.341-.065-.471-.195l-2.167-2.167c-.26-.26-.26-.682 0-.943s.682-.26.943 0l2.167 2.167c.26.26.26.682 0 .943-.13.13-.301.195-.472.195z" id="svg_5" fill="#d35c50" opacity="1"/></g></g></svg>