<svg xmlns="http://www.w3.org/2000/svg" enable-background="new 0 0 32 32" height="32" width="32" style=""><rect id="backgroundrect" width="100%" height="100%" x="0" y="0" fill="none" stroke="none"/><g class="currentLayer" style=""><title>Layer 1</title><path d="m26 32h-20c-3.314 0-6-2.686-6-6v-20c0-3.314 2.686-6 6-6h20c3.314 0 6 2.686 6 6v20c0 3.314-2.686 6-6 6z" fill="#d35c50" id="svg_1" class="" fill-opacity="1" opacity="0.1"/><g fill="#d35c50" id="svg_2" class="" fill-opacity="1" opacity="0.7"><path d="m20.667 20h-9.333c-.368 0-.667-.299-.667-.667s.299-.667.667-.667h9.333c.368 0 .667.299.667.667s-.299.667-.667.667z" id="svg_3" fill="#d35c50" opacity="0.7"/><path d="m14.5 17.333c-.091 0-.183-.025-.263-.075-.147-.09-.237-.251-.237-.425v-3c0-.173.09-.334.237-.425s.332-.099.487-.022l3 1.5c.169.085.276.258.276.447s-.107.363-.276.447l-3 1.5c-.071.036-.148.053-.224.053z" id="svg_4" fill="#d35c50" opacity="0.7"/><path d="m18 20.667c-.735 0-1.333-.598-1.333-1.333s.598-1.334 1.333-1.334 1.333.598 1.333 1.333-.598 1.334-1.333 1.334z" id="svg_5" fill="#d35c50" opacity="0.7"/></g><path d="m22 8.667h-12c-1.103 0-2 .897-2 2v10.667c0 1.103.897 2 2 2h12c1.103 0 2-.897 2-2v-10.667c0-1.103-.897-2-2-2zm0 13.333h-12c-.368 0-.667-.299-.667-.667v-9.333h13.333v9.333c.001.368-.298.667-.666.667z" fill="#d35c50" id="svg_6" class="" fill-opacity="1"/></g></svg>