<?xml version="1.0" encoding="UTF-8" standalone="no"?><!DOCTYPE svg PUBLIC "-//W3C//DTD SVG 1.1//EN" "http://www.w3.org/Graphics/SVG/1.1/DTD/svg11.dtd"><svg width="100%" height="100%" viewBox="0 0 351 333" version="1.1" xmlns="http://www.w3.org/2000/svg" xmlns:xlink="http://www.w3.org/1999/xlink" xml:space="preserve" xmlns:serif="http://www.serif.com/" style="fill-rule:evenodd;clip-rule:evenodd;stroke-linejoin:round;stroke-miterlimit:2;"><g><g><rect x="1.343" y="0" width="69.915" height="69.915" style="fill:#00112c;"/><rect x="93.688" y="0" width="69.915" height="69.915" style="fill:#00112c;"/><rect x="186.033" y="0" width="69.915" height="69.915" style="fill:#00112c;"/><rect x="278.377" y="0" width="69.915" height="69.915" style="fill:#00112c;"/></g><g><rect x="0" y="87.529" width="69.915" height="69.915" style="fill:#00112c;"/><rect x="92.345" y="87.529" width="69.915" height="69.915" style="fill:#00112c;"/><rect x="184.69" y="87.529" width="69.915" height="69.915" style="fill:#00112c;"/><rect x="277.034" y="87.529" width="69.915" height="69.915" style="fill:#00112c;"/></g><g><rect x="2.686" y="175.057" width="69.915" height="69.915" style="fill:#00112c;"/><rect x="95.031" y="175.057" width="69.915" height="69.915" style="fill:#00112c;"/><rect x="187.376" y="175.057" width="69.915" height="69.915" style="fill:#00112c;"/><rect x="279.721" y="175.057" width="69.915" height="69.915" style="fill:#00112c;"/></g><g><rect x="4.03" y="262.586" width="69.915" height="69.915" style="fill:#00112c;"/><rect x="96.374" y="262.586" width="69.915" height="69.915" style="fill:#00112c;"/><rect x="188.719" y="262.586" width="69.915" height="69.915" style="fill:#00112c;"/><rect x="281.064" y="262.586" width="69.915" height="69.915" style="fill:#00112c;"/></g></g></svg>