<svg xmlns="http://www.w3.org/2000/svg" clip-rule="evenodd" fill-rule="evenodd" stroke-linejoin="round" stroke-miterlimit="2" width="351" height="333" style=""><rect id="backgroundrect" width="100%" height="100%" x="0" y="0" fill="none" stroke="none"/><g class="currentLayer" style=""><title>Layer 1</title><g fill="#000000" id="svg_1" class="" fill-opacity="1"><path d="m0.7935494236946106,0 h69.915 v69.915 h-69.915 z" id="svg_2" fill="#000000" fill-opacity="1"/><path d="m93.13854942369461,0 h69.915 v69.915 h-69.915 z" id="svg_3" fill="#000000" fill-opacity="1"/><path d="m185.4835494236946,0 h69.915 v69.915 h-69.915 z" id="svg_4" fill="#000000" fill-opacity="1"/><path d="m277.8275494236946,0 h69.915 v69.915 h-69.915 z" id="svg_5" fill="#000000" fill-opacity="1"/><path d="m-0.5494505763053894,87.529 h69.915 v69.915 h-69.915 z" id="svg_6" fill="#000000" fill-opacity="1"/><path d="m91.79554942369461,87.529 h69.915 v69.915 h-69.915 z" id="svg_7" fill="#000000" fill-opacity="1"/><path d="m184.1405494236946,87.529 h69.915 v69.915 h-69.915 z" id="svg_8" fill="#000000" fill-opacity="1"/><path d="m276.4845494236946,87.529 h69.915 v69.915 h-69.915 z" id="svg_9" fill="#000000" fill-opacity="1"/><path d="m2.1365494236946105,175.057 h69.915 v69.915 h-69.915 z" id="svg_10" fill="#000000" fill-opacity="1"/><path d="m94.48154942369462,175.057 h69.915 v69.915 h-69.915 z" id="svg_11" fill="#000000" fill-opacity="1"/><path d="m186.82654942369462,175.057 h69.915 v69.915 h-69.915 z" id="svg_12" fill="#000000" fill-opacity="1"/><path d="m279.1715494236946,175.057 h69.915 v69.915 h-69.915 z" id="svg_13" fill="#000000" fill-opacity="1"/><path d="m3.480549423694611,262.586 h69.915 v69.915 h-69.915 z" id="svg_14" fill="#000000" fill-opacity="1"/><path d="m95.8245494236946,262.586 h69.915 v69.915 h-69.915 z" id="svg_15" fill="#000000" fill-opacity="1"/><path d="m188.1695494236946,262.586 h69.915 v69.915 h-69.915 z" id="svg_16" fill="#000000" fill-opacity="1"/><path d="m280.51454942369463,262.586 h69.915 v69.915 h-69.915 z" id="svg_17" fill="#000000" fill-opacity="1"/></g></g></svg>