<svg xmlns="http://www.w3.org/2000/svg" clip-rule="evenodd" fill-rule="evenodd" stroke-linejoin="round" stroke-miterlimit="2" width="351" height="333" style=""><rect id="backgroundrect" width="100%" height="100%" x="0" y="0" fill="none" stroke="none"/><g class="currentLayer" style=""><title>Layer 1</title><g fill="#ffffff" id="svg_1" class="" fill-opacity="1"><path d="m1.343 0h69.915v69.915h-69.915z" id="svg_2" fill="#ffffff" fill-opacity="1"/><path d="m93.688 0h69.915v69.915h-69.915z" id="svg_3" fill="#ffffff" fill-opacity="1"/><path d="m186.033 0h69.915v69.915h-69.915z" id="svg_4" fill="#ffffff" fill-opacity="1"/><path d="m278.377 0h69.915v69.915h-69.915z" id="svg_5" fill="#ffffff" fill-opacity="1"/><path d="m0 87.529h69.915v69.915h-69.915z" id="svg_6" fill="#ffffff" fill-opacity="1"/><path d="m92.345 87.529h69.915v69.915h-69.915z" id="svg_7" fill="#ffffff" fill-opacity="1"/><path d="m184.69 87.529h69.915v69.915h-69.915z" id="svg_8" fill="#ffffff" fill-opacity="1"/><path d="m277.034 87.529h69.915v69.915h-69.915z" id="svg_9" fill="#ffffff" fill-opacity="1"/><path d="m2.686 175.057h69.915v69.915h-69.915z" id="svg_10" fill="#ffffff" fill-opacity="1"/><path d="m95.031 175.057h69.915v69.915h-69.915z" id="svg_11" fill="#ffffff" fill-opacity="1"/><path d="m187.376 175.057h69.915v69.915h-69.915z" id="svg_12" fill="#ffffff" fill-opacity="1"/><path d="m279.721 175.057h69.915v69.915h-69.915z" id="svg_13" fill="#ffffff" fill-opacity="1"/><path d="m4.03 262.586h69.915v69.915h-69.915z" id="svg_14" fill="#ffffff" fill-opacity="1"/><path d="m96.374 262.586h69.915v69.915h-69.915z" id="svg_15" fill="#ffffff" fill-opacity="1"/><path d="m188.719 262.586h69.915v69.915h-69.915z" id="svg_16" fill="#ffffff" fill-opacity="1"/><path d="m281.064 262.586h69.915v69.915h-69.915z" id="svg_17" fill="#ffffff" fill-opacity="1"/></g></g></svg>